name Walk4.mot
datacolumns 19
datarows 25
range 1.86100000 1.88500000
endheader

                time	   L_ground_force_vx	   L_ground_force_vy	   L_ground_force_vz	   L_ground_force_px	   L_ground_force_py	   L_ground_force_pz	   R_ground_force_vx	   R_ground_force_vy	   R_ground_force_vz	   R_ground_force_px	   R_ground_force_py	   R_ground_force_pz	   L_ground_torque_x	   L_ground_torque_y	   L_ground_torque_z	   R_ground_torque_x	   R_ground_torque_y	   R_ground_torque_z	
          1.86100000	          0.00000000	          0.00000000	          0.00000000	         -0.00000000	          0.00000000	         -0.00000000	          6.77584467	         23.06883027	          2.90446106	          0.14703870	          0.00000000	          0.04266182	          0.00000000	         -0.00000000	          0.00000000	          0.00000000	         -2.61116878	          0.00000000	
          1.86200000	          0.00000000	          0.00000000	          0.00000000	         -0.00000000	          0.00000000	         -0.00000000	          6.13454878	         20.49300213	          2.82916026	          0.14065547	          0.00000000	          0.04072598	          0.00000000	         -0.00000000	          0.00000000	          0.00000000	         -2.43015864	          0.00000000	
          1.86300000	          0.00000000	          0.00000000	          0.00000000	         -0.00000000	          0.00000000	         -0.00000000	          5.52459751	         18.05874335	          2.74957111	          0.13428346	          0.00000000	          0.03880084	          0.00000000	         -0.00000000	          0.00000000	          0.00000000	         -2.25535573	          0.00000000	
          1.86400000	          0.00000000	          0.00000000	         -0.00000000	         -0.00000000	          0.00000000	         -0.00000000	          4.94563067	         15.76321560	          2.66635897	          0.12794581	          0.00000000	          0.03689276	          0.00000000	         -0.00000000	          0.00000000	          0.00000000	         -2.08689283	          0.00000000	
          1.86500000	          0.00000000	          0.00000000	         -0.00000000	         -0.00000000	          0.00000000	         -0.00000000	          4.39720161	         13.60329765	          2.58014633	          0.12166353	          0.00000000	          0.03500750	          0.00000000	         -0.00000000	          0.00000000	          0.00000000	         -1.92486747	          0.00000000	
          1.86600000	          0.00000000	          0.00000000	         -0.00000000	         -0.00000000	          0.00000000	         -0.00000000	          3.87878627	         11.57562123	          2.49151406	          0.11545566	          0.00000000	          0.03315026	          0.00000000	         -0.00000000	          0.00000000	          0.00000000	         -1.76934455	          0.00000000	
          1.86700000	          0.00000000	          0.00000000	         -0.00000000	         -0.00000000	          0.00000000	         -0.00000000	          3.38979173	          9.67660472	          2.40100284	          0.10933933	          0.00000000	          0.03132565	          0.00000000	         -0.00000000	          0.00000000	          0.00000000	         -1.62035890	          0.00000000	
          1.86800000	          0.00000000	          0.00000000	         -0.00000000	         -0.00000000	          0.00000000	         -0.00000000	          2.92956431	          7.90248487	          2.30911442	          0.10332986	          0.00000000	          0.02953781	          0.00000000	         -0.00000000	          0.00000000	          0.00000000	         -1.47791766	          0.00000000	
          1.86900000	          0.00000000	          0.00000000	         -0.00000000	         -0.00000000	          0.00000000	         -0.00000000	          2.49739720	          6.24934642	          2.21631313	          0.09744089	          0.00000000	          0.02779036	          0.00000000	         -0.00000000	          0.00000000	          0.00000000	         -1.34200267	          0.00000000	
          1.87000000	          0.00000000	          0.00000000	         -0.00000000	         -0.00000000	          0.00000000	         -0.00000000	          2.09253766	          4.71314987	          2.12302726	          0.09168441	          0.00000000	          0.02608648	          0.00000000	         -0.00000000	          0.00000000	          0.00000000	         -1.21257262	          0.00000000	
          1.87100000	          0.00000000	          0.00000000	         -0.00000000	         -0.00000000	          0.00000000	         -0.00000000	          1.71419375	          3.28975725	          2.02965052	          0.08607092	          0.00000000	          0.02442889	          0.00000000	         -0.00000000	          0.00000000	          0.00000000	         -1.08956522	          0.00000000	
          1.87200000	          0.00000000	          0.00000000	         -0.00000000	         -0.00000000	          0.00000000	         -0.00000000	          1.36154067	          1.97495617	          1.93654348	          0.08060947	          0.00000000	          0.02281992	          0.00000000	         -0.00000000	          0.00000000	          0.00000000	         -0.97289921	          0.00000000	
          1.87300000	          0.00000000	          0.00000000	         -0.00000000	         -0.00000000	          0.00000000	         -0.00000000	          1.03372668	          0.76448205	          1.84403504	          0.07530777	          0.00000000	          0.02126152	          0.00000000	         -0.00000000	          0.00000000	          0.00000000	         -0.86247627	          0.00000000	
          1.87400000	          0.00000000	          0.00000000	         -0.00000000	         -0.00000000	          0.00000000	         -0.00000000	          0.72987859	         -0.34596132	          1.75242388	          0.07017228	          0.00000000	          0.01975529	          0.00000000	         -0.00000000	          0.00000000	          0.00000000	         -0.75818285	          0.00000000	
          1.87500000	          0.00000000	          0.00000000	         -0.00000000	         -0.00000000	          0.00000000	         -0.00000000	          0.44910689	         -1.36068285	          1.66197987	          0.06520826	          0.00000000	          0.01830247	          0.00000000	         -0.00000000	          0.00000000	          0.00000000	         -0.65989190	          0.00000000	
          1.87600000	          0.00000000	          0.00000000	         -0.00000000	         -0.00000000	          0.00000000	         -0.00000000	          0.19051049	         -2.28398684	          1.57294556	          0.06041989	          0.00000000	          0.01690401	          0.00000000	         -0.00000000	          0.00000000	          0.00000000	         -0.56746447	          0.00000000	
          1.87700000	          0.00000000	          0.00000000	         -0.00000000	         -0.00000000	          0.00000000	         -0.00000000	         -0.04681885	         -3.12015701	          1.48553752	          0.05581034	          0.00000000	          0.01556058	          0.00000000	         -0.00000000	          0.00000000	          0.00000000	         -0.48075129	          0.00000000	
          1.87800000	          0.00000000	          0.00000000	         -0.00000000	         -0.00000000	          0.00000000	         -0.00000000	         -0.26379255	         -3.87344217	          1.39994777	          0.05138182	          0.00000000	          0.01427257	          0.00000000	         -0.00000000	          0.00000000	          0.00000000	         -0.39959418	          0.00000000	
          1.87900000	          0.00000000	          0.00000000	         -0.00000000	         -0.00000000	          0.00000000	         -0.00000000	         -0.46132143	         -4.54804305	          1.31634515	          0.04713567	          0.00000000	          0.01304015	          0.00000000	         -0.00000000	          0.00000000	          0.00000000	         -0.32382742	          0.00000000	
          1.88000000	          0.00000000	          0.00000000	         -0.00000000	         -0.00000000	          0.00000000	         -0.00000000	         -0.64031236	         -5.14810056	          1.23487660	          0.04307243	          0.00000000	          0.01186323	          0.00000000	         -0.00000000	          0.00000000	          0.00000000	         -0.25327899	          0.00000000	
          1.88100000	          0.00000000	          0.00000000	         -0.00000000	         -0.00000000	          0.00000000	         -0.00000000	         -0.80166514	         -5.67768520	          1.15566854	          0.03919190	          0.00000000	          0.01074155	          0.00000000	         -0.00000000	          0.00000000	          0.00000000	         -0.18777180	          0.00000000	
          1.88200000	          0.00000000	          0.00000000	         -0.00000000	         -0.00000000	          0.00000000	         -0.00000000	         -0.94626972	         -6.14078770	          1.07882808	          0.03549321	          0.00000000	          0.00967465	          0.00000000	         -0.00000000	          0.00000000	          0.00000000	         -0.12712475	          0.00000000	
          1.88300000	          0.00000000	          0.00000000	         -0.00000000	         -0.00000000	          0.00000000	         -0.00000000	         -1.07500370	         -6.54131068	          1.00444427	          0.03197488	          0.00000000	          0.00866191	          0.00000000	         -0.00000000	          0.00000000	          0.00000000	         -0.07115380	          0.00000000	
          1.88400000	          0.00000000	          0.00000000	         -0.00000000	         -0.00000000	          0.00000000	         -0.00000000	         -1.18872998	         -6.88306145	          0.93258932	          0.02863487	          0.00000000	          0.00770254	          0.00000000	         -0.00000000	          0.00000000	          0.00000000	         -0.01967286	          0.00000000	
          1.88500000	          0.00000000	          0.00000000	         -0.00000000	         -0.00000000	          0.00000000	         -0.00000000	         -1.28829485	         -7.16974565	          0.86331974	          0.02547064	          0.00000000	          0.00679563	          0.00000000	         -0.00000000	          0.00000000	          0.00000000	          0.02750530	          0.00000000	
